Coordinates
version=1
nRows=19
nColumns=33
inDegrees=yes

Units are S.I. units (second, meters, Newtons, ...)
Angles are in degrees.

endheader
time	ground_thorax_rot_x	ground_thorax_rot_y	ground_thorax_rot_z	ground_thorax_tx	ground_thorax_ty	ground_thorax_tz	clav_prot_r	clav_elev_r	scapula_abduction_r	scapula_elevation_r	scapula_upward_rot_r	scapula_winging_r	shoulder_elv_r	plane_of_elev_r	axial_rot_r	elbow_flexion_r	pro_sup_r	wrist_flex_r	wrist_dev_r	clav_prot_l	clav_elev_l	scapula_abduction_l	scapula_elevation_l	scapula_upward_rot_l	scapula_winging_l	shoulder_elv_l	plane_of_elev_l	axial_rot_l	elbow_flexion_l	pro_sup_l	wrist_flex_l	wrist_dev_l	
2.6200	26.914065	32.425540	46.785386	29.935816	784.062039	-42.266218	13.298669	36.079221	28.814020	45.000000	-45.000000	-5124.320016	-1727.786578	20.587349	-154.858474	1801.650190	-187.313655	12.957203	12.145850	-12.863391	-45.000000	-35.168974	45.000000	-45.000000	-3860.031592	-1892.273911	136.427837	-133.902609	350.699165	-309.381981	10.669891	-16.498111	
2.6300	27.016524	32.239870	46.562766	26.702492	784.276553	-42.314499	13.282680	36.040478	28.724653	45.000000	-45.000000	-5124.468746	-1727.719043	20.582610	-154.707584	1801.632738	-187.189902	12.997907	12.185510	-12.756515	-45.000000	-35.235065	45.000000	-45.000000	-3859.865896	-1892.183958	136.439532	-134.057591	350.669735	-309.590270	10.729025	-16.512614	
2.6400	27.121192	32.052423	46.333713	23.431493	784.547109	-42.373077	13.270577	36.000706	28.634522	45.000000	-45.000000	-5124.614629	-1727.649471	20.578776	-154.566100	1801.612627	-187.057431	13.038148	12.225737	-12.646546	-45.000000	-35.306733	45.000000	-45.000000	-3859.697180	-1892.094951	136.451577	-134.217195	350.640379	-309.791627	10.787011	-16.525789	
2.6500	27.226392	31.865578	46.101436	20.128440	784.878236	-42.441100	13.262152	35.956878	28.542661	45.000000	-45.000000	-5124.758401	-1727.578655	20.575747	-154.433675	1801.589685	-186.916377	13.078106	12.267132	-12.531472	-45.000000	-35.382796	45.000000	-45.000000	-3859.523978	-1892.007931	136.464635	-134.380999	350.613587	-309.985959	10.843630	-16.538498	
2.6600	27.332759	31.679967	45.863781	16.798380	785.273894	-42.517831	13.256935	35.912664	28.451577	45.000000	-45.000000	-5124.901966	-1727.505237	20.571991	-154.313615	1801.565169	-186.767543	13.117538	12.310742	-12.413827	-45.000000	-35.462432	45.000000	-45.000000	-3859.349622	-1891.921596	136.476283	-134.544866	350.589122	-310.172197	10.899948	-16.552406	
2.6700	27.438550	31.496536	45.623403	13.446235	785.737406	-42.602594	13.254469	35.864519	28.360082	45.000000	-45.000000	-5125.044983	-1727.430668	20.568640	-154.204961	1801.540587	-186.611776	13.155915	12.357229	-12.290408	-45.000000	-35.546289	45.000000	-45.000000	-3859.172369	-1891.836408	136.486389	-134.711187	350.567618	-310.348416	10.955671	-16.568806	
2.6800	27.546693	31.315012	45.377225	10.076781	786.271611	-42.694769	13.247047	35.823598	28.274995	45.000000	-45.000000	-5125.193426	-1727.354898	20.562057	-154.101083	1801.510162	-186.450769	13.196615	12.404328	-12.167991	-45.000000	-35.630717	45.000000	-45.000000	-3858.999823	-1891.748405	136.494621	-134.871113	350.543673	-310.510827	11.013259	-16.589088	
2.6900	27.654898	31.136972	45.127960	6.695042	786.879012	-42.793813	13.242230	35.778955	28.189228	45.000000	-45.000000	-5125.342330	-1727.278473	20.556627	-154.006103	1801.479466	-186.289251	13.236500	12.454993	-12.038035	-45.000000	-35.719229	45.000000	-45.000000	-3858.824665	-1891.661420	136.499456	-135.034869	350.521360	-310.657421	11.070898	-16.615706	
2.7000	27.766927	30.957999	44.872115	3.305551	787.562159	-42.899382	13.231407	35.744066	28.111775	45.000000	-45.000000	-5125.495181	-1727.202931	20.549629	-153.914522	1801.442889	-186.132423	13.278962	12.506317	-11.910145	-45.000000	-35.808907	45.000000	-45.000000	-3858.653470	-1891.570915	136.503193	-135.191886	350.494526	-310.785945	11.130623	-16.649117	
2.7100	27.879095	30.780095	44.613495	-0.087112	788.323555	-43.011382	13.227179	35.702072	28.033256	45.000000	-45.000000	-5125.646170	-1727.127266	20.547472	-153.833521	1801.408793	-185.988028	13.319679	12.561041	-11.773703	-45.000000	-35.903184	45.000000	-45.000000	-3858.477763	-1891.479380	136.503736	-135.349564	350.470112	-310.897734	11.189373	-16.690468	
2.7200	27.994555	30.599802	44.349635	-3.479324	789.165783	-43.130033	13.220459	35.666559	27.962543	45.000000	-45.000000	-5125.798856	-1727.052180	20.545654	-153.758403	1801.370658	-185.862049	13.362761	12.615948	-11.637948	-45.000000	-35.999633	45.000000	-45.000000	-3858.304448	-1891.384251	136.504705	-135.498197	350.443582	-310.995148	11.249485	-16.739520	
2.7300	28.110038	30.418176	44.083825	-6.868092	790.091175	-43.255807	13.220678	35.626363	27.893297	45.000000	-45.000000	-5125.949482	-1726.977625	20.548804	-153.698172	1801.335958	-185.760578	13.405003	12.673097	-11.495253	-45.000000	-36.101504	45.000000	-45.000000	-3858.125851	-1891.288471	136.503831	-135.644551	350.420088	-311.083809	11.309532	-16.796424	
2.7400	28.233236	30.226468	43.807813	-10.251225	791.101596	-43.389248	13.207091	35.610142	27.841088	45.000000	-45.000000	-5126.101987	-1726.906421	20.549813	-153.639498	1801.293834	-185.684306	13.453427	12.727127	-11.359547	-45.000000	-36.206850	45.000000	-45.000000	-3857.952066	-1891.191021	136.506833	-135.773741	350.393322	-311.168801	11.373442	-16.860271	
2.7500	28.357874	30.032020	43.528097	-13.626781	792.198304	-43.530774	13.196375	35.592739	27.794481	45.000000	-45.000000	-5126.257420	-1726.837940	20.555349	-153.597802	1801.254200	-185.636633	13.503295	12.780615	-11.219847	-45.000000	-36.317905	45.000000	-45.000000	-3857.775843	-1891.088503	136.505989	-135.891035	350.363109	-311.256264	11.441148	-16.928390	
2.7600	28.483773	29.837210	43.246798	-16.992127	793.381856	-43.680388	13.183880	35.575409	27.753204	45.000000	-45.000000	-5126.418313	-1726.770370	20.563235	-153.570829	1801.213678	-185.618505	13.556484	12.831463	-11.078514	-45.000000	-36.431048	45.000000	-45.000000	-3857.602232	-1890.980308	136.505022	-135.995983	350.329184	-311.352974	11.513973	-16.999236	
2.7700	28.604917	29.648430	42.969401	-20.343577	794.652358	-43.837669	13.183570	35.537146	27.706828	45.000000	-45.000000	-5126.583417	-1726.703345	20.579344	-153.574402	1801.182960	-185.634634	13.607451	12.882395	-10.927173	-45.000000	-36.547696	45.000000	-45.000000	-3857.425507	-1890.864390	136.498903	-136.094813	350.293171	-311.465687	11.590416	-17.069940	
2.7800	28.726324	29.461387	42.689515	-23.675698	796.009515	-44.001773	13.185277	35.493871	27.661031	45.000000	-45.000000	-5126.750939	-1726.636948	20.600207	-153.601806	1801.157110	-185.688881	13.658605	12.931293	-10.773367	-45.000000	-36.665788	45.000000	-45.000000	-3857.251602	-1890.743175	136.492511	-136.181490	350.257319	-311.600075	11.670241	-17.140059	
2.7900	28.843923	29.279344	42.411164	-26.981878	797.452806	-44.171799	13.200219	35.430866	27.610507	45.000000	-45.000000	-5126.920298	-1726.571676	20.629758	-153.668995	1801.141560	-185.791276	13.706219	12.980719	-10.611541	-45.000000	-36.787440	45.000000	-45.000000	-3857.075198	-1890.614410	136.480890	-136.257678	350.221507	-311.759958	11.752175	-17.207579	
2.8000	28.962026	29.098475	42.128262	-30.254270	798.981024	-44.346962	13.219084	35.362142	27.559524	45.000000	-45.000000	-5127.088812	-1726.506694	20.665626	-153.764572	1801.130679	-185.949926	13.752503	13.028953	-10.446485	-45.000000	-36.911384	45.000000	-45.000000	-3856.900971	-1890.482824	136.467981	-136.321600	350.188968	-311.947994	11.835531	-17.273394	
